<svg width="34" height="34" viewBox="0 0 34 34" fill="none" xmlns="http://www.w3.org/2000/svg">
<circle opacity="0.4" cx="17" cy="17" r="17" fill="#D9D9D9"/>
<g clip-path="url(#clip0_1_4703)">
<rect width="22" height="22" transform="translate(6 6)" fill="#EEEEEE"/>
<path d="M25.25 6.91699H8.75C8.02065 6.91699 7.32118 7.20672 6.80546 7.72245C6.28973 8.23817 6 8.93765 6 9.66699V27.0837H28V9.66699C28 8.93765 27.7103 8.23817 27.1945 7.72245C26.6788 7.20672 25.9793 6.91699 25.25 6.91699ZM8.75 8.75033H25.25C25.4931 8.75033 25.7263 8.8469 25.8982 9.01881C26.0701 9.19072 26.1667 9.42388 26.1667 9.66699V10.2784L18.9452 17.5008C18.4286 18.0154 17.7291 18.3043 17 18.3043C16.2709 18.3043 15.5714 18.0154 15.0548 17.5008L7.83333 10.2784V9.66699C7.83333 9.42388 7.92991 9.19072 8.10182 9.01881C8.27373 8.8469 8.50688 8.75033 8.75 8.75033ZM7.83333 25.2503V12.8753L13.7587 18.797C14.6191 19.6552 15.7847 20.1372 17 20.1372C18.2153 20.1372 19.3809 19.6552 20.2413 18.797L26.1667 12.8753V25.2503H7.83333Z" fill="#374957" fill-opacity="0.6"/>
</g>
<defs>
<clipPath id="clip0_1_4703">
<rect width="22" height="22" fill="white" transform="translate(6 6)"/>
</clipPath>
</defs>
</svg>
