<svg width="34" height="34" viewBox="0 0 34 34" fill="none" xmlns="http://www.w3.org/2000/svg">
<circle opacity="0.4" cx="17" cy="17" r="17" fill="#D9D9D9"/>
<g clip-path="url(#clip0_1_4710)">
<path d="M17 29C14.6266 29 12.3066 28.2962 10.3332 26.9776C8.35977 25.6591 6.8217 23.7849 5.91345 21.5922C5.0052 19.3995 4.76756 16.9867 5.23058 14.6589C5.6936 12.3312 6.83649 10.193 8.51472 8.51472C10.193 6.83649 12.3312 5.6936 14.6589 5.23058C16.9867 4.76756 19.3995 5.0052 21.5922 5.91345C23.7849 6.8217 25.6591 8.35977 26.9776 10.3332C28.2962 12.3066 29 14.6266 29 17C28.9966 20.1815 27.7312 23.2318 25.4815 25.4815C23.2318 27.7312 20.1815 28.9966 17 29ZM17 7.00001C15.0222 7.00001 13.0888 7.5865 11.4443 8.68531C9.79981 9.78412 8.51809 11.3459 7.76121 13.1732C7.00433 15.0004 6.8063 17.0111 7.19215 18.9509C7.578 20.8907 8.53041 22.6725 9.92894 24.0711C11.3275 25.4696 13.1093 26.422 15.0491 26.8079C16.9889 27.1937 18.9996 26.9957 20.8268 26.2388C22.6541 25.4819 24.2159 24.2002 25.3147 22.5557C26.4135 20.9112 27 18.9778 27 17C26.9971 14.3487 25.9426 11.8069 24.0679 9.93215C22.1931 8.05742 19.6513 7.00292 17 7.00001Z" fill="#374957" fill-opacity="0.6"/>
<path d="M19 24.0005H17V17.0005H15V15.0005H17C17.5304 15.0005 18.0391 15.2112 18.4142 15.5863C18.7893 15.9613 19 16.4701 19 17.0005V24.0005Z" fill="#374957" fill-opacity="0.6"/>
<path d="M17 12.9995C17.8284 12.9995 18.5 12.3279 18.5 11.4995C18.5 10.6711 17.8284 9.99951 17 9.99951C16.1716 9.99951 15.5 10.6711 15.5 11.4995C15.5 12.3279 16.1716 12.9995 17 12.9995Z" fill="#374957" fill-opacity="0.6"/>
</g>
<defs>
<clipPath id="clip0_1_4710">
<rect width="24" height="24" fill="white" transform="translate(5 5)"/>
</clipPath>
</defs>
</svg>
