<svg width="34" height="34" viewBox="0 0 34 34" fill="none" xmlns="http://www.w3.org/2000/svg">
<circle opacity="0.4" cx="17" cy="17" r="17" fill="#D9D9D9"/>
<g clip-path="url(#clip0_1_4696)">
<path d="M21.5 28.9998C14.252 28.9998 4.99999 19.7479 4.99999 12.4999C4.99306 11.7197 5.14128 10.9459 5.43604 10.2235C5.7308 9.5011 6.16622 8.8445 6.71699 8.29187L9.88699 5.12187L16.151 11.3869L12.745 14.7929C13.9724 17.7074 16.2882 20.0282 19.2 21.2619L22.614 17.8479L28.88 24.1129L25.708 27.2848C25.1552 27.8352 24.4985 28.2702 23.7761 28.5646C23.0537 28.8591 22.28 29.007 21.5 28.9998ZM9.88699 7.95087L8.12999 9.70787C7.76595 10.0751 7.47857 10.5111 7.28458 10.9904C7.09058 11.4697 6.99384 11.9828 6.99999 12.4999C6.99999 18.7339 15.266 26.9998 21.5 26.9998C22.0168 27.0058 22.5297 26.9092 23.009 26.7156C23.4882 26.5219 23.9243 26.2352 24.292 25.8718L26.051 24.1129L22.613 20.6759L19.686 23.5999L19.08 23.3679C17.1502 22.6497 15.3973 21.5251 13.9401 20.0703C12.4829 18.6155 11.3554 16.8645 10.634 14.9359L10.388 14.3229L13.323 11.3869L9.88699 7.95087ZM22.187 15.6889L23.56 14.3179L22 12.7579V9.99987H20V13.4999L22.187 15.6889ZM16.565 8.97287C17.1097 8.37076 17.7711 7.88565 18.509 7.54699C19.2469 7.20834 20.046 7.02321 20.8576 7.00286C21.6693 6.9825 22.4766 7.12733 23.2306 7.42857C23.9846 7.7298 24.6694 8.18115 25.2436 8.75519C25.8178 9.32924 26.2693 10.014 26.5707 10.7679C26.8721 11.5218 27.0172 12.3291 26.997 13.1408C26.9768 13.9524 26.7919 14.7515 26.4534 15.4895C26.1149 16.2275 25.63 16.889 25.028 17.4339L26.441 18.8479C27.2279 18.1171 27.8594 17.2352 28.2978 16.2549C28.7361 15.2745 28.9723 14.2159 28.9921 13.1422C29.012 12.0685 28.8152 11.0018 28.4134 10.0059C28.0117 9.00999 27.4132 8.10533 26.6539 7.34598C25.8945 6.58663 24.9899 5.98818 23.994 5.58643C22.9981 5.18467 21.9314 4.98784 20.8577 5.00772C19.784 5.02759 18.7253 5.26375 17.745 5.70209C16.7646 6.14043 15.8827 6.77194 15.152 7.55887L16.565 8.97287Z" fill="#374957" fill-opacity="0.6"/>
</g>
<defs>
<clipPath id="clip0_1_4696">
<rect width="24" height="24" fill="white" transform="translate(5 5)"/>
</clipPath>
</defs>
</svg>
