<svg width="138" height="91" viewBox="0 0 138 91" fill="none" xmlns="http://www.w3.org/2000/svg">
<path d="M73.1475 39.3137C75.645 39.849 78.15 39.1531 80.4 40.0478C82.1475 40.7437 85.7625 43.2749 87.0675 41.0572C87.1477 40.9235 87.2656 40.8175 87.4057 40.7531C87.5458 40.6886 87.7018 40.6687 87.8531 40.696C88.0045 40.7232 88.1443 40.7963 88.2544 40.9058C88.3644 41.0152 88.4396 41.1559 88.47 41.3096C88.77 42.8441 88.3975 44.0854 87.3525 45.0337C87.1375 45.2274 86.89 45.2962 86.61 45.2402C85.065 44.9241 82.7625 44.7023 79.7025 44.5749C77.9475 44.4984 72.0525 41.9213 72.4125 39.2754C72.4298 39.1518 72.4091 39.0257 72.3532 38.9146C72.2973 38.8035 72.209 38.7127 72.1004 38.6549C71.9919 38.597 71.8684 38.5749 71.747 38.5915C71.6256 38.6082 71.5122 38.6628 71.4225 38.7478C67.2975 42.6402 63.525 45.6454 57.6675 46.9531C54.1475 47.7382 50.615 48.4672 47.07 49.1402C41.3625 50.226 42.2025 58.4466 37.1025 61.0619C34.485 62.4078 34.815 65.1225 34.155 67.539C33.645 69.4049 32.3325 70.3149 30.975 71.5154C30.8846 71.5962 30.8204 71.7031 30.7909 71.8219C30.7614 71.9407 30.7681 72.0659 30.81 72.1807L31.095 72.9837C31.195 73.2692 31.0975 73.4119 30.8025 73.4119H27.195C27.1302 73.412 27.0663 73.3963 27.0086 73.3659C26.951 73.3356 26.9014 73.2916 26.8639 73.2377C26.8264 73.1837 26.8022 73.1214 26.7932 73.0559C26.7843 72.9904 26.7909 72.9237 26.8125 72.8613C26.9275 72.5096 27.12 72.2062 27.39 71.9513C27.61 71.7474 27.77 71.5053 27.87 71.2249C28.79 68.5841 29.5 65.8821 30 63.119C30.085 62.6653 29.985 62.6168 29.7 62.9737C28.02 65.1149 27.0525 66.6137 26.6175 69.5807C26.3675 71.3294 25.72 72.9302 24.675 74.3831C24.6282 74.4473 24.5959 74.5211 24.5803 74.5991C24.5647 74.6771 24.5664 74.7574 24.585 74.8343L24.8475 75.9125C24.9175 76.2031 24.805 76.3458 24.51 76.3407L20.7375 76.3025C20.6308 76.302 20.5266 76.2688 20.4386 76.2071C20.3506 76.1455 20.2828 76.0584 20.244 75.957C20.2052 75.8556 20.1972 75.7446 20.221 75.6385C20.2448 75.5324 20.2993 75.436 20.3775 75.3619C21.315 74.4596 21.7575 73.626 22.08 72.2725C23.1675 67.6766 23.7525 61.9719 26.5125 58.0872C28.815 54.8525 29.6775 53.3154 30.33 49.9125C30.39 49.5811 30.27 49.4868 29.97 49.6296C29.445 49.8819 28.905 50.4478 28.77 51.0749C28.245 53.4913 27.13 55.4898 25.425 57.0702C25.28 57.2027 25.16 57.1747 25.065 56.986C24.985 56.8229 24.9925 56.6649 25.0875 56.5119C25.2675 56.206 25.345 55.8721 25.32 55.5101C25.29 55.1125 25.1375 55.0564 24.8625 55.3419C21.7825 58.5129 18.0175 60.3074 13.5675 60.7255C13.5316 60.7297 13.4953 60.7212 13.4648 60.7014C13.4343 60.6816 13.4114 60.6517 13.4 60.6167C13.3885 60.5817 13.3893 60.5438 13.402 60.5093C13.4148 60.4748 13.4388 60.4458 13.47 60.4272L16.14 58.7372C16.1897 58.7003 16.2251 58.6467 16.24 58.5859C16.2549 58.5251 16.2484 58.4608 16.2217 58.4044C16.1949 58.3479 16.1495 58.3029 16.0935 58.2771C16.0374 58.2512 15.9743 58.2463 15.915 58.2631C13.2975 59.196 10.845 60.0831 8.07003 59.1578C6.41503 58.6123 4.74753 58.1305 3.06753 57.7125C2.78753 57.6411 2.75503 57.5086 2.97003 57.3149C4.35003 56.0709 5.94503 55.6351 7.75503 56.0072C7.82397 56.0202 7.89519 56.0094 7.95742 55.9765C8.01965 55.9436 8.06933 55.8904 8.0986 55.8255C8.12787 55.7605 8.13505 55.6875 8.11901 55.6179C8.10297 55.5483 8.06462 55.4862 8.01003 55.4413L7.07253 54.6766C7.03782 54.651 7.01321 54.6142 7.0027 54.5724C6.9922 54.5305 6.99642 54.486 7.01469 54.4461C7.03295 54.4062 7.06418 54.3732 7.10328 54.3526C7.14239 54.332 7.18706 54.3249 7.23003 54.3325L12.9975 55.4566C13.0315 55.4616 13.0662 55.4556 13.0967 55.4395C13.1272 55.4235 13.152 55.3981 13.1677 55.3669C13.1834 55.3358 13.1891 55.3004 13.1842 55.2658C13.1792 55.2312 13.1638 55.199 13.14 55.1737L12.705 54.7302C12.39 54.409 12.455 54.2662 12.9 54.3019C15.8 54.5568 18.1875 53.5423 20.0625 51.2584C20.3325 50.9219 20.2575 50.7945 19.8375 50.876L17.8275 51.2507C17.5175 51.3119 17.48 51.2329 17.715 51.0137C22.355 46.7772 27.6475 43.7209 33.5925 41.8449C33.7123 41.807 33.8205 41.7395 33.9071 41.6485C33.9936 41.5576 34.0557 41.4462 34.0875 41.3249C34.8375 38.6178 36.1725 36.8335 38.0925 35.9719C46.53 32.1943 51.4875 29.9384 55.9425 25.7096C58.8975 22.9031 62.1525 20.9072 65.5425 18.896C65.8525 18.7125 65.8475 18.5443 65.5275 18.3913L65.1825 18.2231C64.8475 18.06 64.8425 17.8866 65.1675 17.7031L68.0025 16.1125C68.3925 15.8933 68.3925 15.6766 68.0025 15.4625L67.395 15.1337C67.045 14.94 67.0525 14.7641 67.4175 14.606C69.0325 13.9025 70.7125 13.4564 72.4575 13.2678C72.5246 13.2608 72.5874 13.2315 72.6365 13.1844C72.6857 13.1374 72.7182 13.0752 72.7293 13.0075C72.7404 12.9397 72.7293 12.8701 72.6979 12.8094C72.6664 12.7487 72.6162 12.7001 72.555 12.6713L71.82 12.3043C71.7604 12.2737 71.7107 12.2262 71.6769 12.1674C71.6432 12.1086 71.627 12.0411 71.6302 11.9731C71.6334 11.9051 71.6558 11.8395 71.6948 11.7843C71.7339 11.729 71.7878 11.6865 71.85 11.6619C74.65 10.5913 77.5575 10.4256 80.5725 11.1649C81.2925 11.3382 81.4325 11.7409 80.9925 12.3731C80.8825 12.5311 80.895 12.6764 81.03 12.809C81.225 12.9976 81.3825 12.9772 81.5025 12.7478C82.4475 10.989 83.1425 9.71446 83.5875 8.92426C83.6256 8.85634 83.6839 8.80303 83.754 8.77203C83.8241 8.74104 83.9024 8.73397 83.9775 8.75184C84.0527 8.76972 84.1208 8.81162 84.172 8.87148C84.2232 8.93135 84.2549 9.00607 84.2625 9.08485L84.4275 11.4937C84.4375 11.6874 84.5175 11.7231 84.6675 11.6007C86.0075 10.4894 87.22 10.6449 88.305 12.0672C89.535 13.6731 91.3425 12.7019 92.8125 13.1072C92.9469 13.1445 93.0684 13.2197 93.1629 13.324C93.2574 13.4284 93.3212 13.5578 93.347 13.6974C93.3728 13.8369 93.3596 13.9811 93.3089 14.1134C93.2581 14.2457 93.1719 14.3608 93.06 14.4454C90.205 16.6325 87.4175 18.7507 84.6975 20.8001C83.6175 21.6184 83.355 22.5666 82.41 23.5607C81.2175 24.7996 79.8975 24.4401 80.055 26.8337C80.0585 26.8885 80.0484 26.9432 80.0257 26.993C80.003 27.0428 79.9685 27.086 79.9253 27.1187C79.882 27.1514 79.8314 27.1726 79.7781 27.1802C79.7248 27.1878 79.6704 27.1818 79.62 27.1625L78.915 26.8872C78.665 26.7903 78.4425 26.8362 78.2475 27.0249C77.6075 27.6315 77.475 28.3452 77.85 29.166C77.95 29.3903 77.9275 29.6019 77.7825 29.8007L76.575 31.4525C76.5522 31.4851 76.5405 31.5244 76.5416 31.5645C76.5427 31.6045 76.5567 31.6431 76.5813 31.6743C76.606 31.7055 76.64 31.7276 76.6781 31.7373C76.7162 31.7469 76.7564 31.7436 76.7925 31.7278C79.4675 30.5858 82.25 30.0709 85.14 30.1831C87 30.2596 88.3125 29.189 90.165 29.5331C91.76 29.8339 93.33 29.8798 94.875 29.6707C94.9504 29.6605 95.027 29.6674 95.0994 29.6907C95.1719 29.7141 95.2384 29.7535 95.2942 29.8061C95.3501 29.8586 95.3939 29.9231 95.4226 29.9949C95.4512 30.0666 95.464 30.1439 95.46 30.2213C95.375 32.2147 94.8775 34.0933 93.9675 35.8572C93.9155 35.9586 93.8376 36.0437 93.742 36.1036C93.6464 36.1636 93.5367 36.196 93.4245 36.1976C93.3123 36.1992 93.2018 36.1698 93.1046 36.1126C93.0074 36.0553 92.9273 35.9724 92.8725 35.8725C91.32 33.0278 88.74 32.7831 86.2125 34.6643C82.3575 37.5319 79.095 39.6502 74.07 39.0002C73.745 38.9594 73.435 38.9772 73.14 39.0537C72.78 39.1505 72.7825 39.2372 73.1475 39.3137ZM86.3775 13.1454C86.6425 13.2627 86.9125 13.2449 87.1875 13.0919C87.4525 12.939 87.4675 12.7656 87.2325 12.5719C86.9275 12.3221 86.6 12.2737 86.25 12.4266C86.1701 12.462 86.0939 12.5063 86.0269 12.5566C85.9598 12.6068 85.9033 12.6617 85.8613 12.7176C85.8193 12.7735 85.7928 12.829 85.7835 12.8804C85.7742 12.9318 85.7824 12.9779 85.8075 13.0154C85.8275 13.0511 85.89 13.0664 85.995 13.0613C86.13 13.0613 86.2575 13.0894 86.3775 13.1454ZM92.79 30.7872C91.825 30.4864 90.9125 30.6343 90.0525 31.2307C89.9595 31.2944 89.8931 31.3912 89.8663 31.5021C89.8395 31.6131 89.8543 31.7302 89.9078 31.8306C89.9613 31.931 90.0495 32.0075 90.1554 32.0451C90.2612 32.0826 90.377 32.0786 90.48 32.0337L92.805 31.0702C93.065 30.9631 93.06 30.8688 92.79 30.7872Z" fill="#3C4242"/>
<path d="M78.9675 52.5661C79.0675 52.6681 79.1825 52.6884 79.3125 52.6273C84.5825 50.1445 89.735 50.3765 94.77 53.3232C95.02 53.471 95.24 53.4353 95.43 53.2161C96.54 51.9263 97.9775 51.2635 99.7425 51.2279C104.655 51.1284 108.292 50.8455 108.36 57.2232C108.38 59.7416 108.382 62.2651 108.367 64.7937C108.367 65.0588 108.497 65.1914 108.757 65.1914H111.15C111.405 65.1914 111.535 65.0614 111.54 64.8014C111.607 61.0008 109.92 51.3349 115.732 51.2737C119.22 51.2355 128.152 50.3867 130.987 51.9008C134.025 53.5067 133.972 59.3414 132.375 61.7655C132.248 61.9603 132.18 62.1891 132.18 62.4231C132.225 65.4896 132.555 68.6861 129.255 70.0779C128.145 70.552 126.765 70.292 125.46 70.3684C125.17 70.3837 125.032 70.5418 125.047 70.8426C125.512 80.8449 118.657 77.2737 113.205 77.8167C108.93 78.2449 104.422 78.0079 100.125 77.9926C98.1 77.9824 96.5175 77.312 95.3775 75.9814C95.2075 75.7877 95.0099 75.7545 94.785 75.882C88.57 79.3741 82.5825 79.0504 76.8225 74.9108C76.5825 74.7375 76.3975 74.7884 76.2675 75.0637C74.505 78.849 66.4949 79.0249 64.1474 76.5549C63.9725 76.3714 63.7875 76.3663 63.5925 76.5396C60.5925 79.2773 52.2524 78.872 51.2549 74.3526C49.9699 68.5612 48.6924 62.7673 47.4224 56.9708C45.9824 50.4402 54.105 50.6237 58.2975 51.832C58.5525 51.9084 58.8075 51.911 59.0625 51.8396C62.1925 50.9577 65.3224 50.9424 68.4524 51.7937C68.7074 51.8651 68.9625 51.8626 69.2175 51.7861C71.565 51.0749 76.965 50.509 78.9675 52.5661ZM68.415 54.9979C68.245 53.8202 67.7324 53.2186 66.8774 53.1931C63.8624 53.0937 59.9699 52.3596 59.0774 54.8526C59.0595 54.8993 59.0288 54.9398 58.9888 54.9691C58.9488 54.9984 58.9014 55.0153 58.8522 55.0177C58.8031 55.0201 58.7543 55.008 58.7117 54.9828C58.6692 54.9575 58.6347 54.9203 58.6125 54.8755C57.4725 52.3979 54.615 53.132 52.4174 53.1473C49.6274 53.1549 48.7125 54.409 49.2975 57.162C50.5225 62.9381 51.755 68.579 52.995 74.0849C53.1228 74.6559 53.4376 75.1655 53.8875 75.5297C54.3374 75.8939 54.8955 76.091 55.4699 76.0884L61.0949 76.0808C61.2365 76.0806 61.376 76.0498 61.5041 75.9904C61.6322 75.9311 61.7459 75.8445 61.8374 75.7367C62.9024 74.4724 63.46 72.9863 63.51 71.2784C63.51 71.1918 63.5525 71.1484 63.6374 71.1484H63.8474C64.0424 71.1484 64.1425 71.2479 64.1474 71.4467C64.1924 73.1443 64.76 74.5871 65.85 75.7749C65.9401 75.8738 66.0499 75.9526 66.1724 76.0066C66.295 76.0605 66.4278 76.0884 66.5625 76.0884C68.8875 76.0961 74.13 77.1055 74.7075 73.8555C74.9725 72.3516 75.235 71.0873 75.495 70.0626C75.615 69.6139 75.7625 69.6037 75.9375 70.032C79.29 78.0996 91.2075 78.4208 96.015 71.8902C96.0457 71.8497 96.089 71.8204 96.1378 71.807C96.1867 71.7937 96.2383 71.797 96.2842 71.8164C96.3302 71.8359 96.3679 71.8703 96.3911 71.9143C96.4144 71.9582 96.4219 72.009 96.4125 72.0584C95.94 75.3543 97.77 76.1343 100.672 76.1114C104.752 76.0808 108.837 76.0757 112.927 76.0961C113.123 76.0959 113.313 76.0374 113.475 75.9279C114.015 75.5557 114.552 75.5379 115.087 75.8743C115.297 76.0069 115.527 76.0757 115.777 76.0808C118.222 76.1114 123.322 77.1514 123.345 73.2208C123.35 71.8494 123.365 70.4551 123.39 69.0379C123.395 68.7931 123.517 68.6682 123.757 68.6632C129.12 68.5943 131.467 68.602 130.087 61.8802C130.042 61.6406 130.107 61.4367 130.282 61.2684L131.182 60.3967C131.263 60.3194 131.327 60.2259 131.371 60.1221C131.415 60.0182 131.437 59.906 131.437 59.7926V55.4414C131.437 54.8329 131.2 54.2494 130.778 53.8192C130.356 53.389 129.784 53.1473 129.187 53.1473H115.717C115.064 53.1473 114.438 53.4113 113.975 53.8814C113.513 54.3516 113.252 54.9896 113.25 55.6555V66.6061C113.25 66.912 113.1 67.0649 112.8 67.0649L106.95 67.0573C106.65 67.0573 106.5 66.9069 106.5 66.6061V55.6326C106.5 54.9794 106.247 54.3527 105.796 53.8887C105.345 53.4247 104.733 53.161 104.092 53.1549C101.512 53.132 95.175 52.0384 96.5925 57.2461C96.6121 57.312 96.6074 57.3829 96.5794 57.4456C96.5514 57.5082 96.502 57.5583 96.4403 57.5865C96.3787 57.6146 96.3091 57.6189 96.2446 57.5985C96.1801 57.578 96.1251 57.5343 96.09 57.4755C92.3775 51.7173 83.9474 51.702 78.8174 55.1432C78.5975 55.291 78.4425 55.2375 78.3525 54.9826C77.4225 52.2908 72.7575 53.0555 70.5749 53.2161C70.4432 53.2255 70.3153 53.2638 70.2 53.3286C70.0847 53.3933 69.9848 53.4828 69.9074 53.5908L68.82 55.1049C68.7934 55.1421 68.7564 55.1702 68.714 55.1857C68.6715 55.2011 68.6254 55.2032 68.5818 55.1917C68.5381 55.1802 68.4989 55.1555 68.4691 55.1209C68.4394 55.0864 68.4205 55.0435 68.415 54.9979Z" fill="#3C4242"/>
<path d="M95.5912 65.698C95.5875 66.7916 95.3725 67.8737 94.9586 68.8826C94.5447 69.8915 93.94 70.8074 93.1789 71.578C92.4178 72.3486 91.5154 72.9588 90.523 73.3738C89.5306 73.7888 88.4678 74.0004 87.3953 73.9966L85.4003 73.9895C84.3277 73.9857 83.2664 73.7665 82.2769 73.3445C81.2874 72.9224 80.3891 72.3058 79.6333 71.5298C78.8775 70.7538 78.2791 69.8336 77.8721 68.8218C77.4651 67.81 77.2575 66.7264 77.2613 65.6328L77.2689 63.4305C77.2726 62.3369 77.4876 61.2547 77.9015 60.2458C78.3154 59.237 78.9201 58.3211 79.6812 57.5505C80.4422 56.7799 81.3447 56.1697 82.3371 55.7547C83.3294 55.3397 84.3922 55.1281 85.4648 55.1319L87.4598 55.139C88.5324 55.1428 89.5937 55.362 90.5832 55.784C91.5727 56.206 92.471 56.8227 93.2267 57.5986C93.9825 58.3746 94.581 59.2948 94.988 60.3066C95.395 61.3185 95.6025 62.4021 95.5988 63.4957L95.5912 65.698ZM88.8375 58.3548C87.6225 60.3278 85.4025 60.2513 83.9175 58.2554C83.8339 58.141 83.7151 58.0581 83.5795 58.0194C83.444 57.9807 83.2992 57.9884 83.1675 58.0413C82.4275 58.337 82.0225 59.066 81.9525 60.2283C81.8875 61.2734 81.385 62.9558 80.445 65.2754C80.35 65.515 80.35 65.7521 80.445 65.9866C81.24 68.0589 84.51 70.3989 86.0625 72.1195C86.2525 72.3336 86.4475 72.3362 86.6475 72.1272C87.8475 70.868 89.4125 69.3997 91.3425 67.7225C93.4425 65.8948 91.9275 64.7095 91.56 62.9889C91.25 61.5462 90.8475 60.0627 90.3525 58.5383C90.303 58.3839 90.2113 58.2474 90.088 58.1446C89.9648 58.0419 89.8151 57.9771 89.6563 57.9579C89.4976 57.9386 89.3363 57.9657 89.1914 58.036C89.0464 58.1063 88.9237 58.2168 88.8375 58.3548Z" fill="#3C4242"/>
<path d="M63.4575 63.4249L60.6975 73.2973C60.6075 73.6287 60.395 73.7943 60.06 73.7943H55.86C55.46 73.7943 55.2175 73.5955 55.1325 73.1979L51.375 55.8696C51.3637 55.8181 51.364 55.7647 51.3757 55.7134C51.3874 55.662 51.4104 55.614 51.4428 55.5728C51.4752 55.5317 51.5162 55.4985 51.5629 55.4758C51.6096 55.453 51.6607 55.4413 51.7124 55.4414H55.95C56.0912 55.441 56.228 55.4914 56.3364 55.5837C56.4448 55.676 56.5177 55.8043 56.5425 55.9461L58.0275 64.0749C58.046 64.1736 58.0969 64.2628 58.1717 64.3281C58.2465 64.3934 58.3408 64.431 58.4393 64.4345C58.5377 64.4381 58.6344 64.4074 58.7135 64.3477C58.7927 64.2879 58.8496 64.2026 58.875 64.1055L61.1025 55.862C61.1775 55.5816 61.3575 55.4414 61.6425 55.4414H65.985C66.29 55.4414 66.4775 55.5918 66.5475 55.8926C67.1975 58.5181 67.8575 61.113 68.5275 63.6773C68.6275 64.0647 68.8275 64.2916 69.1275 64.3579C69.1782 64.369 69.2306 64.3697 69.2817 64.3599C69.3327 64.3501 69.3813 64.33 69.4246 64.3008C69.4679 64.2716 69.5051 64.2339 69.5339 64.1898C69.5627 64.1458 69.5826 64.0963 69.5925 64.0443L71.085 55.8849C71.1078 55.7601 71.1728 55.6473 71.2687 55.5663C71.3646 55.4852 71.4854 55.4411 71.61 55.4414H75.78C76.14 55.4414 76.28 55.6224 76.2 55.9843L72.435 73.4349C72.38 73.6745 72.2325 73.7943 71.9925 73.7943H67.4625C67.1775 73.7943 66.995 73.6542 66.915 73.3738L64.1925 63.4326C64.1703 63.3511 64.1227 63.2791 64.0569 63.2276C63.9912 63.1761 63.9107 63.1477 63.8278 63.1469C63.7448 63.146 63.6638 63.1726 63.597 63.2228C63.5302 63.273 63.4813 63.3439 63.4575 63.4249Z" fill="#3C4242"/>
<path d="M104.678 69.3973H112.447C112.561 69.3973 112.67 69.4432 112.75 69.525C112.83 69.6067 112.875 69.7176 112.875 69.8332V73.3585C112.875 73.4741 112.83 73.5849 112.75 73.6667C112.67 73.7484 112.561 73.7943 112.447 73.7943H99.24C99.1266 73.7943 99.0179 73.7484 98.9377 73.6667C98.8575 73.5849 98.8125 73.4741 98.8125 73.3585V55.8773C98.8125 55.7617 98.8575 55.6508 98.9377 55.5691C99.0179 55.4873 99.1266 55.4414 99.24 55.4414H103.822C103.936 55.4414 104.045 55.4873 104.125 55.5691C104.205 55.6508 104.25 55.7617 104.25 55.8773V68.9614C104.25 69.077 104.295 69.1879 104.375 69.2696C104.455 69.3514 104.564 69.3973 104.678 69.3973Z" fill="#3C4242"/>
<path d="M121.47 62.5149H127.65C127.759 62.5149 127.864 62.5592 127.942 62.6381C128.019 62.717 128.062 62.824 128.062 62.9355V65.8261C128.063 65.9363 128.02 66.0422 127.944 66.1208C127.869 66.1995 127.766 66.2447 127.658 66.2467L121.53 66.3691C121.422 66.3711 121.319 66.4163 121.243 66.4949C121.167 66.5736 121.125 66.6794 121.125 66.7896V73.3738C121.125 73.4853 121.082 73.5923 121.004 73.6712C120.927 73.75 120.822 73.7943 120.712 73.7943H116.1C115.991 73.7943 115.886 73.75 115.808 73.6712C115.731 73.5923 115.688 73.4853 115.688 73.3738V55.862C115.688 55.7504 115.731 55.6435 115.808 55.5646C115.886 55.4857 115.991 55.4414 116.1 55.4414H128.775C128.884 55.4414 128.989 55.4857 129.067 55.5646C129.144 55.6435 129.188 55.7504 129.188 55.862V58.8443C129.188 58.9559 129.144 59.0629 129.067 59.1417C128.989 59.2206 128.884 59.2649 128.775 59.2649H121.575C121.468 59.2649 121.365 59.3071 121.289 59.3827C121.212 59.4583 121.166 59.5614 121.163 59.6702L121.058 62.0791C121.055 62.1356 121.065 62.1919 121.084 62.2447C121.104 62.2975 121.134 62.3457 121.173 62.3864C121.211 62.4271 121.258 62.4594 121.309 62.4815C121.36 62.5036 121.415 62.515 121.47 62.5149Z" fill="#3C4242"/>
<path d="M84.1499 60.5111C83.9649 60.1287 83.6449 59.9681 83.1899 60.0293C82.8449 60.0803 82.7325 59.9401 82.8525 59.6087L83.0325 59.1193C83.1675 58.737 83.3724 58.6936 83.6474 58.9893C85.4325 60.9062 87.2174 60.9623 89.0024 59.1576C89.2175 58.9434 89.375 58.9791 89.475 59.2646L91.3425 64.5028C91.5079 64.9619 91.5378 65.4605 91.4285 65.9374C91.3193 66.4142 91.0756 66.8486 90.7275 67.187L86.7375 71.0334C86.6746 71.0951 86.6004 71.1434 86.5192 71.1757C86.4379 71.2079 86.3512 71.2234 86.264 71.2213C86.1768 71.2191 86.0909 71.1994 86.0113 71.1632C85.9316 71.127 85.8598 71.0751 85.8 71.0105L81.33 66.2081C81.095 65.9583 81.0325 65.6703 81.1425 65.344L82.6499 60.7481C82.7899 60.3301 82.98 60.3046 83.2199 60.6717C83.375 60.9113 83.6 61.0132 83.895 60.9776C84.195 60.9419 84.2799 60.7864 84.1499 60.5111ZM88.905 60.0905L88.5674 60.4346C88.5285 60.4743 88.5007 60.5239 88.487 60.5783C88.4733 60.6326 88.4742 60.6897 88.4895 60.7436C88.5048 60.7975 88.5341 60.8463 88.5742 60.8847C88.6143 60.9232 88.6637 60.95 88.7175 60.9623C89.0325 61.0336 89.25 60.9572 89.37 60.7328C89.495 60.5085 89.4475 60.2944 89.2275 60.0905C89.1175 59.9834 89.01 59.9834 88.905 60.0905ZM88.08 65.084L88.1474 62.8893C88.1525 62.6497 88.0375 62.5248 87.8025 62.5146C87.7225 62.5146 87.6399 62.5146 87.5549 62.5146C87.3099 62.5197 87.1875 62.6497 87.1875 62.9046V65.1605C87.1875 65.4562 87.0625 65.6805 86.8125 65.8334L86.6325 65.9405C86.4814 66.0286 86.3062 66.0637 86.1338 66.0405C85.9613 66.0173 85.801 65.937 85.6776 65.812C85.5541 65.687 85.4743 65.5242 85.4504 65.3485C85.4264 65.1728 85.4596 64.9939 85.5449 64.8393C85.9599 64.1154 85.9674 63.3991 85.5674 62.6905C85.5326 62.6281 85.4849 62.574 85.4277 62.5323C85.3705 62.4906 85.3052 62.4621 85.2365 62.449C85.1677 62.4358 85.0972 62.4383 85.03 62.4563C84.9628 62.4742 84.9005 62.5072 84.8474 62.5529C84.0224 63.2666 83.9774 63.9676 84.7124 64.6558C84.7781 64.7095 84.8201 64.7877 84.8292 64.873C84.8384 64.9583 84.8139 65.0439 84.7612 65.1108C84.7085 65.1777 84.6319 65.2206 84.5482 65.2299C84.4645 65.2392 84.3806 65.2142 84.3149 65.1605C83.7399 64.7527 83.3225 64.2123 83.0625 63.5393C82.9375 63.2079 82.825 63.213 82.725 63.5546C82.3125 65.0458 83.2499 66.2999 83.7749 67.6458C83.8749 67.8956 84.0425 68.0791 84.2775 68.1964C85.1225 68.6093 85.695 69.2593 85.995 70.1464C86.0237 70.2269 86.0758 70.2965 86.1443 70.3459C86.2129 70.3954 86.2946 70.4224 86.3786 70.4232C86.4626 70.424 86.5448 70.3987 86.6143 70.3506C86.6838 70.3025 86.7372 70.2339 86.7675 70.154C87.1125 69.2364 87.745 68.5813 88.665 68.1887C88.91 68.0817 89.0749 67.9007 89.1599 67.6458C89.5649 66.4452 91.035 64.327 89.415 63.4476C89.165 63.3099 89.05 63.3864 89.07 63.677C89.12 64.2989 88.93 64.8291 88.5 65.2676C88.205 65.5683 88.065 65.5072 88.08 65.084Z" fill="#3C4242"/>
<path d="M87.7875 67.5084C87.3975 68.0845 86.8625 68.3292 86.1825 68.2425C85.9125 68.2068 85.6775 68.0972 85.4775 67.9137L84.7575 67.2561C84.6075 67.1133 84.625 66.9986 84.81 66.9119C85.66 66.5041 86.495 66.4939 87.315 66.8814C87.485 66.9629 87.635 66.9349 87.765 66.7972L87.9825 66.5755C88.2175 66.341 88.3275 66.5194 88.3125 67.1108C88.3125 67.2229 88.2575 67.2841 88.1475 67.2943C87.9975 67.3096 87.8775 67.381 87.7875 67.5084Z" fill="#3C4242"/>
</svg>
